# xmcd CD database file
#
# Track frame offsets:
#	150
#	38903
#	68329
#	112594
#	149328
#	181921
#	228548
#	263265
#	306695
#
# Disc length: 4614 seconds
#
# Revision: 0
# Processed by: cddbd v1.5.2PL0 Copyright (c) Steve Scherf et al.
# Submitted via: CDex 1.51
#
DISCID=6f120409
DTITLE=Szendõfi Péter - Triangle
DYEAR=1900
DGENRE=Jazz
TTITLE0=I Hate Sundays
TTITLE1=No Sweat
TTITLE2=2LN
TTITLE3=The Unaided
TTITLE4=Bowlegged
TTITLE5=T.O.P. Secret
TTITLE6=Aha, Ahha
TTITLE7=Telling
TTITLE8=Everything's Cool
EXTD=
EXTT0=
EXTT1=
EXTT2=
EXTT3=
EXTT4=
EXTT5=
EXTT6=
EXTT7=
EXTT8=
PLAYORDER=
